<svg width="20" height="20" viewBox="0 0 20 20" fill="none" xmlns="http://www.w3.org/2000/svg">
<path d="M4.32009 15.2923C5.13692 14.6616 6.02678 14.1635 6.98968 13.798C7.95242 13.4327 8.97714 13.25 10.0638 13.25C11.1505 13.25 12.1753 13.4327 13.138 13.798C14.1009 14.1635 14.9908 14.6616 15.8076 15.2923C16.405 14.6089 16.8784 13.8179 17.2277 12.9192C17.577 12.0206 17.7516 11.0475 17.7516 10C17.7516 7.78333 17.0029 5.89583 15.5054 4.3375C14.0078 2.77917 12.194 2 10.0638 2C7.93368 2 6.11983 2.77917 4.62231 4.3375C3.12479 5.89583 2.37603 7.78333 2.37603 10C2.37603 11.0475 2.55069 12.0206 2.90001 12.9192C3.24932 13.8179 3.72268 14.6089 4.32009 15.2923ZM10.0641 10.75C9.18671 10.75 8.44684 10.4367 7.84447 9.81C7.24193 9.18317 6.94067 8.41325 6.94067 7.50025C6.94067 6.58725 7.24177 5.81733 7.84399 5.1905C8.44636 4.5635 9.18623 4.25 10.0636 4.25C10.941 4.25 11.6808 4.56333 12.2832 5.19C12.8857 5.81683 13.187 6.58675 13.187 7.49975C13.187 8.41275 12.8859 9.18267 12.2837 9.8095C11.6813 10.4365 10.9415 10.75 10.0641 10.75ZM10.0638 19.5C8.79615 19.5 7.60694 19.2519 6.49622 18.7558C5.38549 18.2596 4.41931 17.5839 3.59767 16.7288C2.77588 15.8738 2.12658 14.8683 1.64978 13.7125C1.17297 12.5567 0.93457 11.3192 0.93457 10C0.93457 8.68083 1.17297 7.44333 1.64978 6.2875C2.12658 5.13167 2.77588 4.12625 3.59767 3.27125C4.41931 2.41608 5.38549 1.74042 6.49622 1.24425C7.60694 0.748084 8.79615 0.5 10.0638 0.5C11.3315 0.5 12.5207 0.748084 13.6315 1.24425C14.7422 1.74042 15.7084 2.41608 16.53 3.27125C17.3518 4.12625 18.0011 5.13167 18.4779 6.2875C18.9547 7.44333 19.1931 8.68083 19.1931 10C19.1931 11.3192 18.9547 12.5567 18.4779 13.7125C18.0011 14.8683 17.3518 15.8738 16.53 16.7288C15.7084 17.5839 14.7422 18.2596 13.6315 18.7558C12.5207 19.2519 11.3315 19.5 10.0638 19.5ZM10.0638 18C10.9311 18 11.7673 17.8548 12.5725 17.5645C13.3776 17.274 14.0925 16.8679 14.7171 16.3462C14.0925 15.8436 13.3869 15.4519 12.6003 15.1712C11.8136 14.8904 10.9681 14.75 10.0638 14.75C9.15956 14.75 8.31254 14.8888 7.52278 15.1663C6.73302 15.4439 6.02894 15.8372 5.41055 16.3462C6.03519 16.8679 6.75007 17.274 7.55521 17.5645C8.36035 17.8548 9.19656 18 10.0638 18ZM10.0638 9.25C10.5419 9.25 10.9417 9.08267 11.2631 8.748C11.5847 8.4135 11.7455 7.9975 11.7455 7.5C11.7455 7.0025 11.5847 6.5865 11.2631 6.252C10.9417 5.91733 10.5419 5.75 10.0638 5.75C9.58575 5.75 9.18599 5.91733 8.86454 6.252C8.54293 6.5865 8.38213 7.0025 8.38213 7.5C8.38213 7.9975 8.54293 8.4135 8.86454 8.748C9.18599 9.08267 9.58575 9.25 10.0638 9.25Z" fill="#525252"/>
</svg>
