<svg width="30" height="30" viewBox="0 0 30 30" fill="none" xmlns="http://www.w3.org/2000/svg">
<mask id="mask0_212_2426" style="mask-type:alpha" maskUnits="userSpaceOnUse" x="0" y="0" width="30" height="30">
<rect width="30" height="30" fill="#D9D9D9"/>
</mask>
<g mask="url(#mask0_212_2426)">
<path d="M16.1562 13.8125L10.8438 8.5L12.625 6.75L16.1562 10.2813L23.25 3.21875L25 4.96875L16.1562 13.8125ZM8.75 23.125L17.4375 25.5L24.875 23.1875C24.7708 23 24.6198 22.8385 24.4219 22.7031C24.224 22.5677 24 22.5 23.75 22.5H17.4375C16.875 22.5 16.4271 22.4792 16.0938 22.4375C15.7604 22.3958 15.4167 22.3125 15.0625 22.1875L12.1562 21.2188L12.8438 18.7813L15.375 19.625C15.7292 19.7292 16.1458 19.8125 16.625 19.875C17.1042 19.9375 17.8125 19.9792 18.75 20C18.75 19.7708 18.6823 19.5521 18.5469 19.3438C18.4115 19.1354 18.25 19 18.0625 18.9375L10.75 16.25H8.75V23.125ZM1.25 27.5V13.75H10.75C10.8958 13.75 11.0417 13.7656 11.1875 13.7969C11.3333 13.8281 11.4688 13.8646 11.5938 13.9063L18.9375 16.625C19.625 16.875 20.1823 17.3125 20.6094 17.9375C21.0365 18.5625 21.25 19.25 21.25 20H23.75C24.7917 20 25.6771 20.3438 26.4062 21.0313C27.1354 21.7188 27.5 22.625 27.5 23.75V25L17.5 28.125L8.75 25.6875V27.5H1.25ZM3.75 25H6.25V16.25H3.75V25Z" fill="#0366CB"/>
</g>
</svg>
