<svg width="30" height="30" viewBox="0 0 30 30" fill="none" xmlns="http://www.w3.org/2000/svg">
<mask id="mask0_20_23" style="mask-type:alpha" maskUnits="userSpaceOnUse" x="0" y="0" width="30" height="30">
<rect width="30" height="30" fill="#D9D9D9"/>
</mask>
<g mask="url(#mask0_20_23)">
<path d="M11.3438 20.3125L15.0001 18.0938L18.6563 20.3125L17.6876 16.1562L20.9376 13.3438L16.6563 13L15.0001 9.0625L13.3438 13L9.06256 13.3438L12.3126 16.1562L11.3438 20.3125ZM15.0001 29.125L10.8126 25H5.00006V19.1875L0.875061 15L5.00006 10.8125V5H10.8126L15.0001 0.875L19.1876 5H25.0001V10.8125L29.1251 15L25.0001 19.1875V25H19.1876L15.0001 29.125ZM15.0001 25.625L18.1251 22.5H22.5001V18.125L25.6251 15L22.5001 11.875V7.5H18.1251L15.0001 4.375L11.8751 7.5H7.50006V11.875L4.37506 15L7.50006 18.125V22.5H11.8751L15.0001 25.625Z" fill="#0366CB"/>
</g>
</svg>
