<svg width="18" height="18" viewBox="0 0 18 18" fill="none" xmlns="http://www.w3.org/2000/svg">
<mask id="mask0_212_5950" style="mask-type:alpha" maskUnits="userSpaceOnUse" x="0" y="0" width="18" height="18">
<rect width="18" height="18" fill="#D9D9D9"/>
</mask>
<g mask="url(#mask0_212_5950)">
<path d="M9.375 15.8509L9.25969 13.875H8.625C6.95575 13.875 5.53844 13.2923 4.37306 12.1269C3.20769 10.9616 2.625 9.54425 2.625 7.875C2.625 6.20575 3.20769 4.78844 4.37306 3.62306C5.53844 2.45769 6.95575 1.875 8.625 1.875C9.45963 1.875 10.2397 2.031 10.9652 2.343C11.6907 2.655 12.326 3.08362 12.8711 3.62887C13.4164 4.174 13.845 4.80931 14.157 5.53481C14.469 6.26031 14.625 7.04037 14.625 7.875C14.625 8.726 14.4923 9.54306 14.2269 10.3262C13.9616 11.1093 13.5969 11.842 13.1329 12.5243C12.669 13.2065 12.1159 13.8296 11.4735 14.3934C10.8312 14.9574 10.1318 15.4433 9.375 15.8509ZM10.5 13.7625C11.3875 13.0125 12.1094 12.1344 12.6656 11.1281C13.2219 10.1219 13.5 9.0375 13.5 7.875C13.5 6.5125 13.0281 5.35938 12.0844 4.41563C11.1406 3.47188 9.9875 3 8.625 3C7.2625 3 6.10938 3.47188 5.16563 4.41563C4.22188 5.35938 3.75 6.5125 3.75 7.875C3.75 9.2375 4.22188 10.3906 5.16563 11.3344C6.10938 12.2781 7.2625 12.75 8.625 12.75H10.5V13.7625ZM8.62781 11.8298C8.81156 11.8298 8.96763 11.7656 9.096 11.6372C9.22425 11.5088 9.28838 11.3528 9.28838 11.1692C9.28838 10.9856 9.22425 10.8296 9.096 10.7012C8.96763 10.5728 8.81156 10.5086 8.62781 10.5086C8.44419 10.5086 8.28819 10.5728 8.15981 10.7012C8.03144 10.8296 7.96725 10.9856 7.96725 11.1692C7.96725 11.3528 8.03144 11.5088 8.15981 11.6372C8.28819 11.7656 8.44419 11.8298 8.62781 11.8298ZM8.19225 9.54225H9.08644C9.09606 9.201 9.14444 8.94813 9.23156 8.78363C9.31856 8.61925 9.55481 8.34425 9.94031 7.95863C10.1606 7.7385 10.3397 7.50675 10.4777 7.26338C10.6157 7.02013 10.6847 6.75094 10.6847 6.45581C10.6847 5.86631 10.4834 5.41462 10.0809 5.10075C9.67856 4.78675 9.19806 4.62975 8.63944 4.62975C8.13269 4.62975 7.70506 4.76969 7.35656 5.04956C7.00794 5.32931 6.75863 5.66631 6.60862 6.06056L7.44225 6.38644C7.524 6.16919 7.65719 5.96344 7.84181 5.76919C8.02644 5.57494 8.29231 5.47781 8.63944 5.47781C9.02019 5.47781 9.30337 5.58238 9.489 5.7915C9.6745 6.00075 9.76725 6.22987 9.76725 6.47887C9.76725 6.71062 9.70356 6.91206 9.57619 7.08319C9.44881 7.25431 9.29044 7.43463 9.10106 7.62413C8.70194 7.97025 8.45069 8.26106 8.34731 8.49656C8.24394 8.73219 8.19225 9.08075 8.19225 9.54225Z" fill="#525252"/>
</g>
</svg>
