<svg width="20" height="20" viewBox="0 0 20 20" fill="none" xmlns="http://www.w3.org/2000/svg">
<mask id="mask0_212_4416" style="mask-type:alpha" maskUnits="userSpaceOnUse" x="0" y="0" width="20" height="20">
<rect width="20" height="20" fill="#D9D9D9"/>
</mask>
<g mask="url(#mask0_212_4416)">
<path d="M10 13.2627L6.54812 9.81083L7.2275 9.13938L9.52729 11.431V3.75H10.4727V11.431L12.7725 9.13938L13.4519 9.81083L10 13.2627ZM4.95188 16.25C4.62507 16.25 4.34306 16.1314 4.10583 15.8942C3.86861 15.6569 3.75 15.3749 3.75 15.0481V12.4375H4.69563V15.0481C4.69563 15.1122 4.72229 15.1709 4.77562 15.2244C4.8291 15.2777 4.88785 15.3044 4.95188 15.3044H15.0481C15.1122 15.3044 15.1709 15.2777 15.2244 15.2244C15.2777 15.1709 15.3044 15.1122 15.3044 15.0481V12.4375H16.25V15.0481C16.25 15.3749 16.1314 15.6569 15.8942 15.8942C15.6569 16.1314 15.3749 16.25 15.0481 16.25H4.95188Z" fill="#525252"/>
</g>
</svg>
