<svg width="18" height="20" viewBox="0 0 18 20" fill="none" xmlns="http://www.w3.org/2000/svg">
<path d="M8 19.4808C5.83717 18.8909 4.0465 17.6178 2.628 15.6615C1.20933 13.7052 0.5 11.518 0.5 9.10001V3.34626L8 0.538513L15.5 3.34626V9.46526C15.5 9.58426 15.4937 9.70993 15.4812 9.84226H13.9693C13.9794 9.70993 13.9871 9.58426 13.9923 9.46526C13.9974 9.3461 14 9.22435 14 9.10001V4.37501L8 2.13451L2 4.37501V9.10001C2 11.1167 2.56667 12.95 3.7 14.6C4.83333 16.25 6.26667 17.35 8 17.9V19.4808ZM13 19.5V16.5H10V15H13V12H14.5V15H17.5V16.5H14.5V19.5H13ZM6.7405 12.75H9.2595L8.69425 9.59226C9.00825 9.4576 9.26108 9.24593 9.45275 8.95726C9.64442 8.6686 9.74025 8.34951 9.74025 8.00001C9.74025 7.52135 9.56975 7.1116 9.22875 6.77076C8.88775 6.4301 8.47783 6.25976 7.999 6.25976C7.52017 6.25976 7.11058 6.4301 6.77025 6.77076C6.42992 7.1116 6.25975 7.52135 6.25975 8.00001C6.25975 8.34951 6.35558 8.6686 6.54725 8.95726C6.73892 9.24593 6.99175 9.4576 7.30575 9.59226L6.7405 12.75Z" fill="#525252"/>
</svg>
