<svg width="24" height="24" viewBox="0 0 24 24" fill="none" xmlns="http://www.w3.org/2000/svg">
<mask id="mask0_212_8611" style="mask-type:alpha" maskUnits="userSpaceOnUse" x="0" y="0" width="24" height="24">
<rect x="0.532227" width="23.0634" height="24" fill="#D9D9D9"/>
</mask>
<g mask="url(#mask0_212_8611)">
<path d="M10.8534 14.7501H13.2741L12.7309 11.5923C13.0327 11.4577 13.2756 11.2465 13.4598 10.9588C13.644 10.671 13.7361 10.3514 13.7361 10.0001C13.7361 9.52058 13.5726 9.11066 13.2455 8.77033C12.9185 8.42999 12.5245 8.25983 12.0638 8.25983C11.603 8.25983 11.2091 8.42999 10.882 8.77033C10.555 9.11066 10.3914 9.52058 10.3914 10.0001C10.3914 10.3514 10.4835 10.671 10.6677 10.9588C10.8519 11.2465 11.0949 11.4577 11.3966 11.5923L10.8534 14.7501ZM12.0638 21.4808C9.98533 20.891 8.26455 19.6179 6.9014 17.6616C5.5381 15.7052 4.85645 13.5181 4.85645 11.1001V5.34632L12.0638 2.53857L19.2711 5.34632V11.1001C19.2711 13.5181 18.5894 15.7052 17.2261 17.6616C15.863 19.6179 14.1422 20.891 12.0638 21.4808ZM12.0638 19.9001C13.7295 19.3501 15.1069 18.2501 16.196 16.6001C17.2851 14.9501 17.8296 13.1167 17.8296 11.1001V6.37508L12.0638 4.13458L6.29791 6.37508V11.1001C6.29791 13.1167 6.84246 14.9501 7.93157 16.6001C9.02067 18.2501 10.3981 19.3501 12.0638 19.9001Z" fill="#525252"/>
</g>
</svg>
