<svg width="18" height="18" viewBox="0 0 18 18" fill="none" xmlns="http://www.w3.org/2000/svg">
<path d="M4.09625 17.75H1.75646C1.33549 17.75 0.979167 17.6042 0.6875 17.3125C0.395833 17.0208 0.25 16.6645 0.25 16.2435V13.9038H1.5V16.2435C1.5 16.3184 1.52403 16.3799 1.57208 16.4279C1.62014 16.476 1.6816 16.5 1.75646 16.5H4.09625V17.75ZM13.9038 17.75V16.5H16.2435C16.3184 16.5 16.3799 16.476 16.4279 16.4279C16.476 16.3799 16.5 16.3184 16.5 16.2435V13.9038H17.75V16.2435C17.75 16.6645 17.6042 17.0208 17.3125 17.3125C17.0208 17.6042 16.6645 17.75 16.2435 17.75H13.9038ZM9 14.096C7.42417 14.096 6.00187 13.6391 4.73313 12.7252C3.46451 11.8112 2.52306 10.5694 1.90875 9C2.52306 7.43056 3.46451 6.18882 4.73313 5.27479C6.00187 4.3609 7.42417 3.90396 9 3.90396C10.5758 3.90396 11.9981 4.3609 13.2669 5.27479C14.5355 6.18882 15.4769 7.43056 16.0913 9C15.4769 10.5694 14.5355 11.8112 13.2669 12.7252C11.9981 13.6391 10.5758 14.096 9 14.096ZM9 12.8463C10.2436 12.8463 11.3697 12.5076 12.3781 11.8302C13.3867 11.1528 14.1699 10.2094 14.7275 9C14.1699 7.79056 13.3867 6.84715 12.3781 6.16979C11.3697 5.49243 10.2436 5.15375 9 5.15375C7.75639 5.15375 6.63035 5.49243 5.62188 6.16979C4.61326 6.84715 3.83014 7.79056 3.2725 9C3.83014 10.2094 4.61326 11.1528 5.62188 11.8302C6.63035 12.5076 7.75639 12.8463 9 12.8463ZM9 11.6523C9.73611 11.6523 10.3622 11.3942 10.8781 10.8781C11.3942 10.3622 11.6523 9.73611 11.6523 9C11.6523 8.26389 11.3942 7.63785 10.8781 7.12187C10.3622 6.60576 9.73611 6.34771 9 6.34771C8.26389 6.34771 7.63785 6.60576 7.12187 7.12187C6.60576 7.63785 6.34771 8.26389 6.34771 9C6.34771 9.73611 6.60576 10.3622 7.12187 10.8781C7.63785 11.3942 8.26389 11.6523 9 11.6523ZM9 10.4023C8.61 10.4023 8.27882 10.266 8.00646 9.99354C7.73396 9.72118 7.59771 9.39 7.59771 9C7.59771 8.61 7.73396 8.27882 8.00646 8.00646C8.27882 7.73396 8.61 7.59771 9 7.59771C9.39 7.59771 9.72118 7.73396 9.99354 8.00646C10.266 8.27882 10.4023 8.61 10.4023 9C10.4023 9.39 10.266 9.72118 9.99354 9.99354C9.72118 10.266 9.39 10.4023 9 10.4023ZM0.25 4.09625V1.75646C0.25 1.33549 0.395833 0.979167 0.6875 0.6875C0.979167 0.395833 1.33549 0.25 1.75646 0.25H4.09625V1.5H1.75646C1.6816 1.5 1.62014 1.52403 1.57208 1.57208C1.52403 1.62014 1.5 1.6816 1.5 1.75646V4.09625H0.25ZM16.5 4.09625V1.75646C16.5 1.6816 16.476 1.62014 16.4279 1.57208C16.3799 1.52403 16.3184 1.5 16.2435 1.5H13.9038V0.25H16.2435C16.6645 0.25 17.0208 0.395833 17.3125 0.6875C17.6042 0.979167 17.75 1.33549 17.75 1.75646V4.09625H16.5Z" fill="#525252"/>
</svg>
