<svg width="23" height="22" viewBox="0 0 23 22" fill="none" xmlns="http://www.w3.org/2000/svg">
<path d="M18.4074 0H4.00182C1.79066 0 0 1.75796 0 3.92874V18.0713C0 20.2374 1.79066 22 4.00182 22H18.4074C20.6138 22 22.4045 20.2374 22.4045 18.0713V3.92874C22.4045 1.75796 20.6138 0 18.4074 0ZM14.33 6.67932H12.8512C12.3315 6.67932 12.2228 6.88805 12.2228 7.41682V8.69703H14.33L14.1268 10.942H12.2228V17.6492H9.49664V10.9698H8.07923V8.69703H9.49664V6.9066C9.49664 5.22749 10.4085 4.35083 12.4401 4.35083H14.33V6.67932Z" fill="white"/>
</svg>
