<svg width="24" height="22" viewBox="0 0 24 22" fill="none" xmlns="http://www.w3.org/2000/svg">
<path d="M19.2028 0H4.79723C2.58607 0 0.79541 1.75796 0.79541 3.92874V18.0713C0.79541 20.2374 2.58607 22 4.79723 22H19.2028C21.4093 22 23.2046 20.2374 23.2046 18.0713V3.92874C23.2046 1.75796 21.4093 0 19.2028 0ZM9.23844 15.9005H6.91862V8.5486H9.23844V15.9005ZM8.06672 7.58381C7.31077 7.58381 6.69655 6.97618 6.69655 6.22475C6.69655 5.47333 7.31077 4.87034 8.06672 4.87034C8.82267 4.87034 9.43688 5.47797 9.43688 6.22475C9.43688 6.97154 8.82267 7.58381 8.06672 7.58381ZM17.9272 15.9005H15.6168V12.0413C15.6168 10.9838 15.2105 10.39 14.3553 10.39C13.4292 10.39 12.9426 11.007 12.9426 12.0413V15.9005H10.7173V8.5486H12.9426V9.53658C12.9426 9.53658 13.6135 8.32132 15.201 8.32132C16.7885 8.32132 17.9272 9.27683 17.9272 11.2435V15.9005Z" fill="white"/>
</svg>
