<svg width="18" height="18" viewBox="0 0 18 18" fill="none" xmlns="http://www.w3.org/2000/svg">
<mask id="mask0_212_5929" style="mask-type:alpha" maskUnits="userSpaceOnUse" x="0" y="0" width="18" height="18">
<rect width="18" height="18" fill="#D9D9D9"/>
</mask>
<g mask="url(#mask0_212_5929)">
<path d="M14.2789 8.79806C14.2356 7.35956 13.7118 6.13819 12.7074 5.13394C11.7031 4.12956 10.4817 3.60575 9.04331 3.5625V2.4375C9.91831 2.45675 10.7375 2.63606 11.5009 2.97544C12.2644 3.31494 12.9313 3.76975 13.5015 4.33988C14.0716 4.91013 14.5264 5.57694 14.8658 6.34031C15.2053 7.10381 15.3846 7.92306 15.4039 8.79806H14.2789ZM11.2789 8.79806C11.2356 8.19706 11.0024 7.68381 10.5793 7.25831C10.1562 6.83294 9.64419 6.601 9.04331 6.5625V5.4375C9.95581 5.476 10.7332 5.81756 11.3754 6.46219C12.0178 7.10694 12.3606 7.88556 12.4039 8.79806H11.2789ZM14.5802 15.375C13.1668 15.375 11.7469 15.0464 10.3204 14.3891C8.894 13.7319 7.58225 12.8048 6.38513 11.6077C5.19288 10.4106 4.26813 9.1 3.61088 7.67588C2.95363 6.25188 2.625 4.83319 2.625 3.41981C2.625 3.19481 2.7 3.00606 2.85 2.85356C3 2.70119 3.1875 2.625 3.4125 2.625H5.85862C6.048 2.625 6.21506 2.68681 6.35981 2.81044C6.50456 2.93394 6.59663 3.08656 6.636 3.26831L7.06594 5.475C7.09569 5.67975 7.08944 5.85569 7.04719 6.00281C7.00481 6.14994 6.92881 6.2735 6.81919 6.3735L5.08706 8.05969C5.36581 8.57019 5.68431 9.05313 6.04256 9.5085C6.40069 9.96375 6.78844 10.3986 7.20581 10.8129C7.61731 11.2246 8.05481 11.6068 8.51831 11.9597C8.98181 12.3126 9.48231 12.6409 10.0198 12.9448L11.7028 11.2472C11.8202 11.1251 11.9623 11.0394 12.1292 10.9903C12.2959 10.9413 12.4693 10.9293 12.6491 10.9543L14.7317 11.3784C14.9211 11.4284 15.0756 11.5251 15.1954 11.6683C15.3151 11.8116 15.375 11.9741 15.375 12.1558V14.5875C15.375 14.8125 15.2988 15 15.1464 15.15C14.9939 15.3 14.8052 15.375 14.5802 15.375ZM4.55475 6.99525L5.89331 5.71444C5.91731 5.69519 5.93294 5.66875 5.94019 5.63512C5.94744 5.6015 5.94625 5.57025 5.93663 5.54137L5.61056 3.86531C5.60094 3.82694 5.58413 3.79812 5.56013 3.77887C5.53613 3.75962 5.50488 3.75 5.46638 3.75H3.8625C3.83362 3.75 3.80956 3.75962 3.79031 3.77887C3.77119 3.79812 3.76162 3.82219 3.76162 3.85106C3.8 4.36356 3.88387 4.88419 4.01325 5.41294C4.1425 5.94181 4.323 6.46925 4.55475 6.99525ZM11.0798 13.4769C11.5769 13.7087 12.0954 13.8859 12.6353 14.0085C13.1753 14.131 13.6798 14.2038 14.1489 14.2269C14.1778 14.2269 14.2019 14.2173 14.2211 14.1981C14.2404 14.1788 14.25 14.1547 14.25 14.1259V12.5481C14.25 12.5096 14.2404 12.4783 14.2211 12.4543C14.2019 12.4303 14.1731 12.4135 14.1347 12.4039L12.5597 12.0836C12.5308 12.074 12.5056 12.0728 12.4839 12.0801C12.4623 12.0873 12.4394 12.1029 12.4153 12.1269L11.0798 13.4769Z" fill="#525252"/>
</g>
</svg>
