<svg width="20" height="21" viewBox="0 0 20 21" fill="none" xmlns="http://www.w3.org/2000/svg">
<mask id="mask0_280_227" style="mask-type:alpha" maskUnits="userSpaceOnUse" x="0" y="0" width="20" height="21">
<rect y="0.5" width="20" height="20" fill="#D9D9D9"/>
</mask>
<g mask="url(#mask0_280_227)">
<path d="M15.8657 10.2756C15.8177 8.6773 15.2357 7.32022 14.1197 6.20439C13.0037 5.08841 11.6466 4.5064 10.0484 4.45834V3.20834C11.0207 3.22973 11.9309 3.42897 12.7791 3.80605C13.6274 4.18327 14.3684 4.68862 15.002 5.32209C15.6355 5.95571 16.1407 6.69661 16.5178 7.5448C16.895 8.39314 17.0944 9.30341 17.1157 10.2756H15.8657ZM12.5324 10.2756C12.4844 9.60786 12.2253 9.03758 11.7551 8.5648C11.285 8.09216 10.7161 7.83445 10.0484 7.79168V6.54168C11.0623 6.58445 11.9261 6.96397 12.6397 7.68022C13.3535 8.39661 13.7344 9.26175 13.7824 10.2756H12.5324ZM16.2005 17.5833C14.6301 17.5833 13.0524 17.2182 11.4674 16.4879C9.88255 15.7576 8.42505 14.7275 7.09491 13.3975C5.77019 12.0674 4.74269 10.6111 4.01241 9.02876C3.28213 7.44654 2.91699 5.87022 2.91699 4.2998C2.91699 4.0498 3.00033 3.84008 3.16699 3.67064C3.33366 3.50133 3.54199 3.41668 3.79199 3.41668H6.50991C6.72033 3.41668 6.90595 3.48536 7.06678 3.62272C7.22762 3.75994 7.32991 3.92952 7.37366 4.13147L7.85137 6.58334C7.88442 6.81084 7.87748 7.00633 7.83053 7.1698C7.78345 7.33327 7.69901 7.47057 7.5772 7.58168L5.65262 9.45522C5.96234 10.0224 6.31623 10.559 6.71428 11.065C7.1122 11.5708 7.54303 12.054 8.00678 12.5144C8.46401 12.9717 8.95012 13.3965 9.46512 13.7886C9.98012 14.1806 10.5362 14.5455 11.1335 14.8831L13.0035 12.9969C13.1339 12.8612 13.2918 12.7661 13.4772 12.7115C13.6625 12.657 13.855 12.6437 14.0549 12.6715L16.3689 13.1427C16.5793 13.1983 16.751 13.3056 16.8841 13.4648C17.0171 13.624 17.0837 13.8045 17.0837 14.0065V16.7083C17.0837 16.9583 16.999 17.1667 16.8297 17.3333C16.6603 17.5 16.4505 17.5833 16.2005 17.5833ZM5.06116 8.27251L6.54845 6.84939C6.57512 6.828 6.59248 6.79862 6.60053 6.76126C6.60859 6.7239 6.60727 6.68918 6.59658 6.65709L6.23428 4.7948C6.22359 4.75216 6.20491 4.72015 6.17824 4.69876C6.15158 4.67737 6.11685 4.66668 6.07408 4.66668H4.29199C4.25991 4.66668 4.23317 4.67737 4.21178 4.69876C4.19053 4.72015 4.17991 4.74689 4.17991 4.77897C4.22255 5.34841 4.31574 5.92689 4.45949 6.51439C4.6031 7.10202 4.80366 7.68807 5.06116 8.27251ZM12.3112 15.4744C12.8635 15.7319 13.4396 15.9288 14.0395 16.065C14.6395 16.2011 15.2001 16.282 15.7214 16.3077C15.7534 16.3077 15.7802 16.297 15.8016 16.2756C15.823 16.2542 15.8337 16.2275 15.8337 16.1954V14.4423C15.8337 14.3995 15.823 14.3648 15.8016 14.3381C15.7802 14.3115 15.7482 14.2928 15.7055 14.2821L13.9555 13.9263C13.9234 13.9156 13.8954 13.9142 13.8714 13.9223C13.8473 13.9304 13.8219 13.9477 13.7951 13.9744L12.3112 15.4744Z" fill="white"/>
</g>
</svg>
