<svg width="20" height="21" viewBox="0 0 20 21" fill="none" xmlns="http://www.w3.org/2000/svg">
<mask id="mask0_59_7595" style="mask-type:alpha" maskUnits="userSpaceOnUse" x="0" y="0" width="20" height="21">
<rect y="0.5" width="20" height="20" fill="#D9D9D9"/>
</mask>
<g mask="url(#mask0_59_7595)">
<path d="M5.67313 14.5703C5.25215 14.5703 4.89583 14.4245 4.60417 14.1328C4.3125 13.8412 4.16667 13.4849 4.16667 13.0641V4.82681C4.16667 4.40597 4.3125 4.04972 4.60417 3.75806C4.89583 3.46639 5.25215 3.32056 5.67313 3.32056H17.2435C17.6645 3.32056 18.0208 3.46639 18.3125 3.75806C18.6042 4.04972 18.75 4.40597 18.75 4.82681V13.0641C18.75 13.4849 18.6042 13.8412 18.3125 14.1328C18.0208 14.4245 17.6645 14.5703 17.2435 14.5703H5.67313ZM11.4583 10.4293L5.41667 6.07035V13.0641C5.41667 13.1388 5.44069 13.2002 5.48875 13.2483C5.53681 13.2965 5.59826 13.3206 5.67313 13.3206H17.2435C17.3184 13.3206 17.3799 13.2965 17.4279 13.2483C17.476 13.2002 17.5 13.1388 17.5 13.0641V6.07035L11.4583 10.4293ZM11.4583 8.90056L17.4198 4.61847C17.4038 4.6025 17.3865 4.59049 17.3677 4.58243C17.3491 4.57438 17.3237 4.57035 17.2917 4.57035H5.625C5.59833 4.57035 5.5716 4.57708 5.54479 4.59056C5.51813 4.60389 5.49681 4.61854 5.48083 4.63452L11.4583 8.90056ZM2.75646 17.487C2.33549 17.487 1.97917 17.3412 1.6875 17.0495C1.39583 16.7578 1.25 16.4016 1.25 15.9808V6.8141H2.5V15.9808C2.5 16.0555 2.52403 16.1169 2.57208 16.1649C2.62014 16.213 2.6816 16.237 2.75646 16.237H15.7852V17.487H2.75646ZM17.5 6.03201C17.5 5.76063 17.4906 5.52104 17.4719 5.31326C17.4533 5.10549 17.4359 4.87389 17.4198 4.61847C17.4038 4.6025 17.3865 4.59049 17.3677 4.58243C17.3491 4.57438 17.3237 4.57035 17.2917 4.57035H5.625C5.59833 4.57035 5.5716 4.57708 5.54479 4.59056C5.51813 4.60389 5.49681 4.61854 5.48083 4.63452C5.46472 4.88993 5.45 5.12014 5.43667 5.32514C5.42333 5.53028 5.41667 5.7659 5.41667 6.03201V4.57035H17.5V6.03201Z" fill="white"/>
</g>
</svg>
