<svg width="18" height="18" viewBox="0 0 18 18" fill="none" xmlns="http://www.w3.org/2000/svg">
<mask id="mask0_212_8608" style="mask-type:alpha" maskUnits="userSpaceOnUse" x="0" y="0" width="18" height="18">
<rect x="0.32666" width="17.2976" height="18" fill="#D9D9D9"/>
</mask>
<g mask="url(#mask0_212_8608)">
<path d="M8.97759 11.6827C9.7943 11.6827 10.4879 11.3853 11.0585 10.7904C11.6291 10.1956 11.9144 9.47319 11.9144 8.62331C11.9144 7.77344 11.6286 7.05163 11.0569 6.45787C10.4852 5.86412 9.79106 5.56725 8.97435 5.56725C8.15764 5.56725 7.464 5.86469 6.89342 6.45956C6.32284 7.05444 6.03755 7.77681 6.03755 8.62669C6.03755 9.47656 6.32338 10.1984 6.89504 10.7921C7.4667 11.3859 8.16088 11.6827 8.97759 11.6827ZM8.97597 10.65C8.43542 10.65 7.97596 10.4531 7.59757 10.0594C7.21919 9.66563 7.02999 9.1875 7.02999 8.625C7.02999 8.0625 7.21919 7.58437 7.59757 7.19063C7.97596 6.79688 8.43542 6.6 8.97597 6.6C9.51652 6.6 9.97599 6.79688 10.3544 7.19063C10.7328 7.58437 10.9219 8.0625 10.9219 8.625C10.9219 9.1875 10.7328 9.66563 10.3544 10.0594C9.97599 10.4531 9.51652 10.65 8.97597 10.65ZM8.97687 13.875C7.31955 13.875 5.80944 13.3993 4.44653 12.4478C3.08363 11.4964 2.08013 10.2221 1.43604 8.625C2.08013 7.02787 3.08327 5.75362 4.44545 4.80225C5.80775 3.85075 7.31763 3.375 8.97507 3.375C10.6324 3.375 12.1425 3.85075 13.5054 4.80225C14.8683 5.75362 15.8718 7.02787 16.5159 8.625C15.8718 10.2221 14.8687 11.4964 13.5065 12.4478C12.1442 13.3993 10.6343 13.875 8.97687 13.875ZM8.97597 12.75C10.3333 12.75 11.5796 12.3781 12.7148 11.6344C13.8499 10.8906 14.7178 9.8875 15.3184 8.625C14.7178 7.3625 13.8499 6.35938 12.7148 5.61562C11.5796 4.87187 10.3333 4.5 8.97597 4.5C7.61859 4.5 6.37233 4.87187 5.23717 5.61562C4.10202 6.35938 3.23414 7.3625 2.63353 8.625C3.23414 9.8875 4.10202 10.8906 5.23717 11.6344C6.37233 12.3781 7.61859 12.75 8.97597 12.75Z" fill="#525252"/>
</g>
</svg>
