<svg width="23" height="22" viewBox="0 0 23 22" fill="none" xmlns="http://www.w3.org/2000/svg">
<path d="M9.9646 8.38159L14.6515 10.9977L9.9646 13.6184V8.38159Z" fill="white"/>
<path d="M19.0029 0H4.59728C2.38612 0 0.595459 1.75796 0.595459 3.92874V18.0713C0.595459 20.2374 2.38612 22 4.59728 22H19.0029C21.2093 22 23 20.2374 23 18.0713V3.92874C23 1.75796 21.2093 0 19.0029 0ZM20.3919 15.265C20.1841 16.0257 19.5746 16.6287 18.8044 16.8328C17.4059 17.1992 11.7977 17.1992 11.7977 17.1992C11.7977 17.1992 6.1895 17.1992 4.79099 16.8328C4.02087 16.6287 3.41138 16.0257 3.20822 15.265C2.83024 13.8828 2.83024 10.9977 2.83024 10.9977C2.83024 10.9977 2.83024 8.11723 3.20822 6.73498C3.41138 5.96964 4.02087 5.37128 4.79099 5.16719C6.1895 4.79612 11.7977 4.79612 11.7977 4.79612C11.7977 4.79612 17.4059 4.79612 18.8044 5.16719C19.5746 5.37128 20.1841 5.96964 20.3919 6.73498C20.7652 8.11723 20.7652 10.9977 20.7652 10.9977C20.7652 10.9977 20.7652 13.8828 20.3919 15.265Z" fill="white"/>
<path d="M9.9646 8.38159V13.6184L14.6515 10.9977L9.9646 8.38159Z" fill="white"/>
<path d="M14.6515 10.9977L9.9646 13.6184V8.38159L14.6515 10.9977Z" fill="white"/>
</svg>
